<?xml version="1.0" encoding="utf-8"?>
<!-- Generator: Adobe Illustrator 23.0.3, SVG Export Plug-In . SVG Version: 6.00 Build 0)  -->
<svg version="1.1" id="レイヤー_1" xmlns="http://www.w3.org/2000/svg" xmlns:xlink="http://www.w3.org/1999/xlink" x="0px"
	 y="0px" viewBox="0 0 940.07 200" style="enable-background:new 0 0 940.07 200;" xml:space="preserve">
<style type="text/css">
	.st0{fill:#040000;}
	.st1{fill:#686CB1;}
	.st2{fill:#67A98A;}
	.st3{fill:#8E8E8E;}
	.st4{fill:none;}
</style>
<g>
	<path class="st0" d="M293.436,120.22c-7.2,0-19.979-0.09-20.879-12.689c-0.27-4.409-0.45-11.699-0.45-19.259
		c0-9.899,0.27-20.339,0.54-25.199c0.72-12.329,9.63-12.689,20.79-12.689c2.79,0,5.49,0.09,6.839,0.18
		c20.79,1.35,32.219,15.839,32.219,34.559C332.494,120.13,302.795,120.22,293.436,120.22z M292.176,60.103
		c-4.32,0-9.18,0.09-9.45,4.59c-0.27,3.78-0.54,14.129-0.54,23.849c0,7.11,0.18,13.769,0.54,17.189c0.45,4.14,3.24,4.86,10.71,4.86
		c9.449,0,28.438,0,28.438-25.469c0-14.489-8.729-24.929-22.499-24.929C299.375,60.192,295.506,60.103,292.176,60.103z"/>
	<path class="st0" d="M366.515,60.103c-9,0-10.89,0.18-11.159,4.05c-0.18,2.16-0.09,6.57-0.18,11.79c0,1.8,0.09,1.8,11.16,1.8
		c4.14,0,8.459,0,10.08-0.09c5.04-0.27,5.04,4.5,5.04,4.77c0,2.61-1.62,5.13-4.77,5.13c-0.09,0-0.27,0-0.45,0
		c-2.25-0.18-5.67-0.27-9.09-0.27c-11.159,0-12.059,0.09-12.059,1.979c0,13.41,0.09,15.479,0.27,17.009
		c0.45,4.14,1.89,4.32,14.579,4.32c5.31,0,11.07-0.091,12.779-0.181c0.18,0,0.27,0,0.45,0c3.15,0,4.86,2.25,4.86,4.59
		c0,2.43-1.8,4.86-5.67,5.04c-1.17,0.09-6.39,0.18-11.609,0.18c-5.13,0-10.35-0.09-11.52-0.18c-8.28-0.63-13.41-3.6-13.77-11.52
		c-0.18-3.78-0.18-10.439-0.18-17.729c0-10.979,0.09-23.219,0.27-28.889c0.18-7.2,4.86-10.979,12.15-11.339
		c1.62-0.09,6.75-0.18,11.79-0.18c5.129,0,10.08,0.09,11.429,0.18c3.42,0.18,5.04,2.43,5.04,4.77c0,2.43-1.89,4.859-5.31,4.859
		C380.645,60.192,372.635,60.103,366.515,60.103z"/>
	<path class="st0" d="M420.965,119.41c-3.33,0-6.75-2.34-8.459-6.57c-4.5-11.429-18.81-52.467-18.81-56.607c0-3.51,2.7-5.4,5.4-5.4
		c2.25,0,4.59,1.35,5.31,4.23c1.53,6.479,10.979,37.708,14.759,48.868c0.36,1.08,0.72,1.71,1.17,1.71c0.36,0,0.81-0.54,1.26-1.98
		c2.52-7.56,11.7-37.438,15.66-49.228c0.81-2.52,2.88-3.6,4.95-3.6c2.88,0,5.76,2.07,5.76,5.13c0,0.54-0.09,1.08-0.27,1.71
		c-5.31,15.659-15.66,44.278-19.079,55.258C427.175,117.34,424.115,119.41,420.965,119.41z"/>
	<path class="st0" d="M476.314,87.731c-1.17,0-3.24-0.09-4.95-0.09s-2.97,0.09-2.97,1.71c0,6.749,0.271,21.509,0.271,24.749
		c-0.09,3.329-2.7,4.949-5.31,4.949c-2.43,0-4.86-1.529-4.86-4.5c0-0.09,0-0.09,0-0.18c0.27-8.369,0.27-19.079,0.27-28.979
		c0-19.439,0-19.799,0.09-23.489c0.27-11.52,10.53-11.52,18.089-11.52c2.07,0,4.14,0.09,5.49,0.18
		c14.579,0.99,20.608,9.54,20.608,18c0,7.739-5.039,15.299-13.139,16.919c-0.63,0.18-0.9,0.27-0.9,0.54c0,0.36,0.63,0.81,1.26,1.53
		c4.41,4.859,6.93,10.349,10.08,15.389c2.25,3.69,4.319,5.4,7.38,5.76c3.06,0.36,4.68,2.79,4.68,5.31c0,2.7-1.8,5.311-5.76,5.311
		c-1.44,0-8.82-0.271-14.939-11.16C485.944,98.171,480.635,87.821,476.314,87.731z M492.784,68.832c0-4.5-3.42-8.909-11.25-9.359
		c-1.17-0.09-2.79-0.09-4.5-0.09c-4.859,0-8.1,0.27-8.369,4.5c-0.181,2.16-0.09,8.55-0.181,13.77c0,1.8,1.17,1.89,7.47,1.89
		c2.25,0,4.59-0.09,6.21-0.18C488.824,78.732,492.784,73.692,492.784,68.832z"/>
	<path class="st0" d="M542.194,60.103c-9,0-10.89,0.18-11.16,4.05c-0.18,2.16-0.09,6.57-0.18,11.79c0,1.8,0.09,1.8,11.159,1.8
		c4.141,0,8.46,0,10.08-0.09c5.04-0.27,5.04,4.5,5.04,4.77c0,2.61-1.62,5.13-4.771,5.13c-0.09,0-0.27,0-0.449,0
		c-2.25-0.18-5.67-0.27-9.09-0.27c-11.16,0-12.06,0.09-12.06,1.979c0,13.41,0.09,15.479,0.27,17.009
		c0.45,4.14,1.891,4.32,14.58,4.32c5.31,0,11.069-0.091,12.779-0.181c0.18,0,0.27,0,0.45,0c3.149,0,4.859,2.25,4.859,4.59
		c0,2.43-1.8,4.86-5.67,5.04c-1.17,0.09-6.39,0.18-11.609,0.18c-5.13,0-10.35-0.09-11.52-0.18c-8.279-0.63-13.409-3.6-13.77-11.52
		c-0.18-3.78-0.18-10.439-0.18-17.729c0-10.979,0.09-23.219,0.27-28.889c0.181-7.2,4.86-10.979,12.149-11.339
		c1.62-0.09,6.75-0.18,11.79-0.18c5.13,0,10.079,0.09,11.43,0.18c3.42,0.18,5.039,2.43,5.039,4.77c0,2.43-1.89,4.859-5.31,4.859
		C556.323,60.192,548.313,60.103,542.194,60.103z"/>
	<path class="st0" d="M574.954,56.413c0-3.51,2.521-5.31,5.04-5.31s5.13,1.8,5.13,5.49c0,0.09,0,0.27,0,0.36
		c-0.27,5.76-0.54,24.749-0.54,37.258c0,5.13,0.09,9.18,0.18,10.71c0.36,4.319,2.34,4.319,14.58,4.319
		c5.22,0,10.979-0.09,12.689-0.18c0.18,0,0.27,0,0.45,0c3.06,0,4.859,2.34,4.859,4.77s-1.8,4.95-5.67,5.13
		c-1.17,0.09-6.479,0.18-11.789,0.18c-5.22,0-10.53-0.09-11.7-0.18c-8.279-0.63-13.229-3.6-13.499-11.52
		c-0.09-1.89-0.09-4.77-0.09-8.1c0-12.329,0.359-32.039,0.359-40.948c0-0.72,0-1.35,0-1.89V56.413z"/>
	<path class="st0" d="M626.614,122.92c-2.25,0-4.5-1.62-4.5-4.05c0-0.54,0.09-1.08,0.36-1.71
		c4.14-10.35,23.039-59.848,25.019-67.047c0.54-1.98,2.16-2.88,3.87-2.88c2.25,0,4.68,1.62,4.68,3.959c0,0.45-0.09,0.9-0.27,1.44
		c-2.521,6.3-20.88,55.348-25.289,67.497C629.763,122.11,628.144,122.92,626.614,122.92z"/>
	<path class="st0" d="M680.884,79.632c0-8.01-0.09-15.839-0.45-23.759c-0.09-2.34,1.35-4.77,5.399-4.77c2.61,0,5.22,1.44,5.22,4.41
		c0,0.09,0,0.09,0,0.18c-0.27,8.28-0.359,16.649-0.359,25.379c0,6.21,0,12.689,0.18,19.439c0,0.18,0,0.45,0,0.63
		c0,12.33-8.909,18.72-19.529,18.72c-7.38,0-11.789-1.891-11.789-6.66c0-2.609,1.8-5.04,5.039-5.04c0.721,0,1.53,0.09,2.341,0.36
		c1.619,0.54,3.239,0.72,4.68,0.72c5.31,0,8.909-3.239,9.089-9.359C680.794,92.861,680.884,86.202,680.884,79.632z"/>
	<path class="st0" d="M753.152,119.23c-2.07,0-4.23-0.99-5.13-3.33c-1.08-2.61-3.42-9.81-6.21-18.18c-0.18-0.54-0.45-0.81-0.99-0.81
		c-1.439-0.09-5.13-0.09-9.18-0.09c-5.399,0-11.43,0-13.319,0.09c-0.45,0-0.899,0.27-1.08,0.81c-2.25,7.11-4.319,13.59-5.67,17.909
		c-0.81,2.521-2.88,3.69-5.039,3.69c-2.521,0-5.13-1.71-5.13-4.5c0-1.62,0.27-2.34,19.979-57.777c1.44-4.14,4.681-6.03,7.92-6.03
		c3.42,0,6.93,2.16,8.37,6.209c5.76,16.199,17.459,47.518,20.429,54.538c0.36,0.899,0.54,1.8,0.54,2.609
		C758.641,117.43,755.941,119.23,753.152,119.23z M738.123,86.562c-2.79-8.459-5.49-16.649-6.93-21.059
		c-0.54-1.62-0.99-2.52-1.53-2.52c-0.45,0-0.99,0.81-1.62,2.61c-1.35,3.6-7.199,20.429-7.199,21.239c0,0.36,0.18,0.54,0.72,0.54
		c1.8,0,5.13,0.09,8.279,0.09c3.24,0,6.39-0.09,7.649-0.09c0.54,0,0.721-0.09,0.721-0.36
		C738.213,86.921,738.213,86.742,738.123,86.562z"/>
	<path class="st0" d="M773.312,119.23c-2.52,0-5.129-1.62-5.129-4.59c0-0.091,0-0.181,0-0.271c0.359-7.02,0.449-14.939,0.449-22.589
		c0-9.27-0.18-18.089-0.18-24.389c0-11.07,0.09-17.01,17.729-17.01c1.89,0,3.689,0.09,5.04,0.18
		c14.219,0.9,20.789,10.53,20.789,20.249c0,9.99-6.93,20.159-19.529,21.419c-2.16,0.27-4.23,0.45-6.479,0.45
		c-2.07,0-4.23-0.18-6.57-0.72c-0.27-0.09-0.45-0.09-0.63-0.09c-0.45,0-0.54,0.27-0.54,0.99c0,5.579,0.271,11.97,0.271,17.909
		c0,1.17,0,2.34,0,3.51C778.442,117.7,775.923,119.23,773.312,119.23z M786.003,59.833c-7.2,0-8.01,0.99-8.01,9.36
		c0,3.15,0.09,6.84,0.09,9.989c0,0.54,0,0.99,0,1.53c0,1.89,1.8,2.52,7.38,2.52c1.71,0,3.6-0.09,5.489-0.27
		c6.84-0.63,10.979-6.84,10.979-12.6c0-5.4-3.51-10.439-11.609-10.439C790.322,59.923,788.162,59.833,786.003,59.833z"/>
	<path class="st0" d="M869.43,119.23c-2.07,0-4.23-0.99-5.13-3.33c-1.08-2.61-3.42-9.81-6.21-18.18c-0.18-0.54-0.45-0.81-0.99-0.81
		c-1.439-0.09-5.13-0.09-9.18-0.09c-5.399,0-11.43,0-13.319,0.09c-0.45,0-0.899,0.27-1.08,0.81c-2.25,7.11-4.319,13.59-5.67,17.909
		c-0.81,2.521-2.88,3.69-5.039,3.69c-2.521,0-5.13-1.71-5.13-4.5c0-1.62,0.27-2.34,19.979-57.777c1.439-4.14,4.68-6.03,7.919-6.03
		c3.42,0,6.93,2.16,8.37,6.209c5.76,16.199,17.459,47.518,20.429,54.538c0.36,0.899,0.54,1.8,0.54,2.609
		C874.92,117.43,872.22,119.23,869.43,119.23z M854.401,86.562c-2.79-8.459-5.49-16.649-6.93-21.059c-0.54-1.62-0.99-2.52-1.53-2.52
		c-0.45,0-0.99,0.81-1.62,2.61c-1.35,3.6-7.199,20.429-7.199,21.239c0,0.36,0.18,0.54,0.72,0.54c1.8,0,5.13,0.09,8.279,0.09
		c3.24,0,6.39-0.09,7.649-0.09c0.54,0,0.721-0.09,0.721-0.36C854.491,86.921,854.491,86.742,854.401,86.562z"/>
	<path class="st0" d="M884.281,114.91c0.181-9.27,0.271-20.159,0.271-30.508c0-9-0.09-17.549-0.181-24.299c0-0.09,0-0.27,0-0.36
		c0-6.3,3.511-8.82,7.47-8.82c3.33,0,6.93,1.89,8.82,4.86c5.67,9,20.699,37.079,27.539,47.338c0.539,0.81,0.989,1.26,1.26,1.26
		c0.27,0,0.63-0.271,0.63-3.78c0-8.459-0.271-36.538-0.54-44.818c-0.09-2.97,2.34-4.86,5.22-4.86c2.609,0,5.22,1.62,5.22,4.68
		c0,0.09,0,0.09,0,0.18c-0.18,6.3-0.27,15.029-0.27,24.029c0,11.429,0.09,23.218,0.27,31.048c0,0.09,0,0.18,0,0.18
		c0,5.4-3.96,8.55-8.189,8.55c-2.88,0-5.76-1.439-7.74-4.5c-6.3-9.989-23.129-40.768-27.988-48.958c-0.36-0.54-0.99-1.71-1.44-1.71
		c-0.54,0-0.54,0.9-0.54,5.04c0,9.359,0.271,35.908,0.54,45.448c0,0.09,0,0.09,0,0.18c0,2.88-2.52,4.23-5.13,4.23
		c-2.609,0-5.22-1.44-5.22-4.32V114.91z"/>
</g>
<g>
	<path class="st1" d="M298.073,185.105c-16.712,0-25.789-10.098-25.789-20.646c0-10.493,8.932-21.268,26.221-21.268
		c11.021,0,18.153,5.077,18.153,7.108c0,1.071-1.081,1.861-2.377,1.861c-0.648,0-1.44-0.226-2.017-0.847
		c-3.386-3.328-8.716-4.907-14.119-4.907c-14.191,0-21.179,9.815-21.179,17.826c0,8.349,6.916,17.262,20.963,17.262
		c6.483,0,12.895-2.031,16.424-5.754c0.576-0.677,1.369-0.902,2.089-0.902c1.369,0,2.666,0.902,2.666,2.03
		C319.107,178.957,310.751,185.105,298.073,185.105z"/>
	<path class="st1" d="M326.449,164.177c0-12.241,11.166-21.098,26.149-21.098c14.983,0,26.149,8.856,26.149,21.098
		c0,12.692-11.166,20.985-26.149,20.985C337.615,185.162,326.449,176.869,326.449,164.177z M374.065,164.177
		c0-10.774-9.581-17.939-21.467-17.939s-21.467,7.165-21.467,17.939c0,10.718,9.581,17.77,21.467,17.77
		S374.065,174.895,374.065,164.177z"/>
	<path class="st1" d="M432.048,180.875c0,2.538-2.521,4.062-5.187,4.062c-1.729,0-3.602-0.677-4.827-2.2
		c-5.115-6.431-20.674-28.657-24.564-33.903c-0.504-0.677-1.152-1.129-1.657-1.129c-1.009,0-1.009,0.79-1.009,4.739
		c0,7.221,0.144,24.765,0.36,30.631v0.057c0,1.129-1.225,1.692-2.449,1.692s-2.449-0.563-2.449-1.692v-0.057
		c0.144-5.189,0.216-11.112,0.216-16.866c0-6.657-0.072-13.088-0.216-18.108v-0.17c0-3.046,2.233-4.456,4.682-4.456
		c2.017,0,4.106,0.902,5.475,2.651c4.466,5.867,19.306,26.908,24.637,33.452c0.432,0.564,1.008,0.902,1.44,0.902
		c0.937,0,0.937-1.071,0.937-2.764c0-6.036-0.216-26.965-0.432-32.324v-0.057c0-1.297,1.225-1.918,2.377-1.918
		c1.297,0,2.521,0.677,2.521,1.918v0.057c-0.144,3.216-0.144,7.334-0.144,11.733c0,8.405,0.144,17.826,0.288,23.693V180.875z"/>
	<path class="st1" d="M445.946,182.962c0.144-6.826,0.072-27.134,0.288-33.114c0.144-3.723,3.169-5.979,8.428-6.205
		c1.296-0.057,5.187-0.112,9.077-0.112c3.89,0,7.708,0.056,8.933,0.112c1.44,0.057,2.161,0.847,2.161,1.636
		c0,0.79-0.721,1.58-2.305,1.58h-0.072c-1.369-0.057-6.195-0.113-10.517-0.113c-2.81,0-5.403,0.057-6.627,0.113
		c-3.098,0.169-4.539,1.354-4.754,3.497c-0.144,1.411-0.072,6.544-0.144,9.872c0,0.903,0.144,0.903,6.843,0.903
		c4.322,0,9.653-0.057,11.31-0.113c0.36,0,2.377-0.057,2.377,1.636c0,0.903-0.792,1.806-2.305,1.806h-0.144
		c-1.873-0.113-5.835-0.113-9.509-0.113c-8.5,0-8.645,0-8.645,0.902c0,3.441,0.072,11.396,0.072,15.514v2.257
		c-0.072,1.015-1.225,1.579-2.377,1.579c-1.081,0-2.089-0.508-2.089-1.579V182.962z"/>
	<path class="st1" d="M512.792,184.654c-0.937,0.057-5.187,0.057-9.437,0.057c-4.178,0-8.429,0-9.365-0.057
		c-6.339-0.395-9.436-2.651-9.653-6.318c-0.144-2.369-0.144-6.431-0.144-10.888c0-6.713,0.072-14.159,0.216-17.713
		c0.144-3.667,3.025-5.867,8.356-6.093c1.369-0.057,5.403-0.112,9.365-0.112c4.034,0,7.924,0.056,9.005,0.112
		c1.513,0.057,2.305,0.847,2.305,1.636c0,0.79-0.864,1.58-2.449,1.58c-0.36,0-7.203-0.057-12.318-0.057c-7.275,0-9.581,0-9.94,3.441
		c-0.145,1.354-0.072,6.093-0.145,9.421c0,1.071,0.721,1.071,1.44,1.071c1.441,0.057,5.115,0.057,8.789,0.057s7.42,0,8.86-0.057
		c2.233-0.057,2.449,1.241,2.449,1.636c0,0.847-0.864,1.749-2.449,1.749h-0.145c-2.232-0.112-6.267-0.112-10.013-0.112
		c-8.933,0-9.005,0-9.005,1.128c0,8.688,0,11.339,0.217,12.692c0.288,2.144,1.801,3.385,5.618,3.61
		c1.225,0.057,5.187,0.057,9.149,0.057c4.033,0,8.067,0,9.364-0.057h0.216c1.441,0,2.233,0.733,2.233,1.523
		S514.521,184.598,512.792,184.654z"/>
	<path class="st1" d="M544.628,164.289c0,0.227,0.288,0.508,0.793,0.847c3.962,2.877,7.06,7.785,9.869,11.396
		c2.017,2.538,4.105,4.23,7.348,4.513c1.44,0.112,2.233,1.016,2.233,1.918c0,0.959-0.937,1.861-2.954,1.861
		c-1.585,0-6.556-0.902-10.445-6.431c-2.953-4.118-9.005-13.539-14.047-13.651c-1.009,0-4.106-0.113-5.979-0.113
		c-2.017,0-2.305,0.339-2.305,1.072c0,4.344,0.216,15.175,0.216,17.262c0,1.128-1.225,1.692-2.377,1.692
		c-1.153,0-2.233-0.508-2.233-1.636c0.144-10.775,0.072-27.416,0.288-33.509c0.216-6.149,7.42-6.149,12.967-6.149
		c1.585,0,3.17,0.057,4.25,0.113c10.518,0.564,15.056,5.359,15.056,10.154c0,4.852-4.61,9.702-12.03,10.38
		C544.844,164.008,544.628,164.12,544.628,164.289z M541.747,146.351c-1.009-0.057-2.594-0.113-4.25-0.113
		c-5.331,0-7.853,0.79-8.141,4.006c-0.145,1.41-0.072,7.164-0.145,10.549c0,0.847,1.081,0.959,6.988,0.959
		c2.305,0,4.683-0.057,6.051-0.112c6.699-0.396,10.518-4.231,10.518-7.954C552.768,150.13,549.383,146.689,541.747,146.351z"/>
	<path class="st1" d="M601.461,184.654c-0.937,0.057-5.188,0.057-9.438,0.057c-4.178,0-8.428,0-9.364-0.057
		c-6.34-0.395-9.438-2.651-9.653-6.318c-0.144-2.369-0.144-6.431-0.144-10.888c0-6.713,0.071-14.159,0.216-17.713
		c0.144-3.667,3.025-5.867,8.356-6.093c1.368-0.057,5.402-0.112,9.364-0.112c4.034,0,7.924,0.056,9.005,0.112
		c1.513,0.057,2.305,0.847,2.305,1.636c0,0.79-0.864,1.58-2.449,1.58c-0.359,0-7.203-0.057-12.318-0.057c-7.275,0-9.58,0-9.94,3.441
		c-0.145,1.354-0.072,6.093-0.145,9.421c0,1.071,0.721,1.071,1.441,1.071c1.44,0.057,5.114,0.057,8.788,0.057s7.42,0,8.86-0.057
		c2.233-0.057,2.449,1.241,2.449,1.636c0,0.847-0.864,1.749-2.449,1.749h-0.144c-2.233-0.112-6.268-0.112-10.014-0.112
		c-8.933,0-9.005,0-9.005,1.128c0,8.688,0,11.339,0.217,12.692c0.288,2.144,1.801,3.385,5.619,3.61
		c1.225,0.057,5.187,0.057,9.148,0.057c4.034,0,8.068,0,9.364-0.057h0.217c1.44,0,2.232,0.733,2.232,1.523
		S603.189,184.598,601.461,184.654z"/>
	<path class="st1" d="M654.619,180.875c0,2.538-2.521,4.062-5.187,4.062c-1.729,0-3.602-0.677-4.826-2.2
		c-5.115-6.431-20.675-28.657-24.564-33.903c-0.505-0.677-1.153-1.129-1.657-1.129c-1.009,0-1.009,0.79-1.009,4.739
		c0,7.221,0.145,24.765,0.36,30.631v0.057c0,1.129-1.225,1.692-2.449,1.692s-2.449-0.563-2.449-1.692v-0.057
		c0.145-5.189,0.216-11.112,0.216-16.866c0-6.657-0.071-13.088-0.216-18.108v-0.17c0-3.046,2.233-4.456,4.683-4.456
		c2.017,0,4.105,0.902,5.475,2.651c4.466,5.867,19.306,26.908,24.637,33.452c0.432,0.564,1.008,0.902,1.44,0.902
		c0.937,0,0.937-1.071,0.937-2.764c0-6.036-0.216-26.965-0.433-32.324v-0.057c0-1.297,1.225-1.918,2.378-1.918
		c1.296,0,2.521,0.677,2.521,1.918v0.057c-0.144,3.216-0.144,7.334-0.144,11.733c0,8.405,0.144,17.826,0.288,23.693V180.875z"/>
	<path class="st1" d="M692,185.105c-16.712,0-25.789-10.098-25.789-20.646c0-10.493,8.933-21.268,26.222-21.268
		c11.021,0,18.153,5.077,18.153,7.108c0,1.071-1.081,1.861-2.377,1.861c-0.648,0-1.441-0.226-2.018-0.847
		c-3.386-3.328-8.716-4.907-14.119-4.907c-14.191,0-21.179,9.815-21.179,17.826c0,8.349,6.916,17.262,20.963,17.262
		c6.483,0,12.895-2.031,16.424-5.754c0.577-0.677,1.369-0.902,2.09-0.902c1.368,0,2.665,0.902,2.665,2.03
		C713.035,178.957,704.678,185.105,692,185.105z"/>
	<path class="st1" d="M751.426,184.654c-0.937,0.057-5.188,0.057-9.438,0.057c-4.178,0-8.428,0-9.364-0.057
		c-6.34-0.395-9.438-2.651-9.653-6.318c-0.144-2.369-0.144-6.431-0.144-10.888c0-6.713,0.071-14.159,0.216-17.713
		c0.144-3.667,3.025-5.867,8.356-6.093c1.368-0.057,5.402-0.112,9.364-0.112c4.034,0,7.924,0.056,9.005,0.112
		c1.513,0.057,2.305,0.847,2.305,1.636c0,0.79-0.864,1.58-2.449,1.58c-0.359,0-7.203-0.057-12.318-0.057c-7.275,0-9.58,0-9.94,3.441
		c-0.145,1.354-0.072,6.093-0.145,9.421c0,1.071,0.721,1.071,1.441,1.071c1.44,0.057,5.114,0.057,8.788,0.057s7.42,0,8.86-0.057
		c2.233-0.057,2.449,1.241,2.449,1.636c0,0.847-0.864,1.749-2.449,1.749h-0.144c-2.233-0.112-6.268-0.112-10.014-0.112
		c-8.933,0-9.005,0-9.005,1.128c0,8.688,0,11.339,0.217,12.692c0.288,2.144,1.801,3.385,5.619,3.61
		c1.225,0.057,5.187,0.057,9.148,0.057c4.034,0,8.068,0,9.364-0.057h0.217c1.44,0,2.232,0.733,2.232,1.523
		S753.154,184.598,751.426,184.654z"/>
	<path class="st2" d="M810.776,184.429c-2.161-0.057-7.275-0.057-12.462-0.057c-5.115,0-10.302,0-12.534,0.057h-0.145
		c-2.594,0-4.034-1.072-4.034-2.539c0-0.846,0.504-1.861,1.585-2.82c5.402-4.908,14.047-11,20.603-17.149
		c3.17-2.933,4.538-5.866,4.538-8.405c0-5.021-5.042-7.051-9.797-7.051c-4.178,0-8.788,1.636-10.59,5.697
		c-0.432,1.016-1.368,1.41-2.232,1.41c-1.153,0-2.306-0.677-2.306-1.805c0-1.806,4.395-8.462,15.344-8.462
		c9.005,0,14.407,4.738,14.407,10.041c0,2.99-1.584,6.487-5.402,10.211c-6.195,6.035-14.119,10.943-20.746,16.923
		c-0.072,0.057-0.145,0.17-0.145,0.226c0,0.282,0.433,0.451,0.937,0.451c7.132,0,17.289-0.281,22.979-0.281
		c1.801,0,2.666,0.846,2.666,1.748c0,0.903-0.937,1.806-2.594,1.806H810.776z"/>
	<path class="st2" d="M824.315,171.454c-0.288-2.595-0.505-5.134-0.505-7.672c0-2.088,0.145-4.175,0.36-6.318
		c0.937-9.308,7.348-14.329,16.064-14.329c8.645,0,14.912,4.739,15.992,13.708c0.288,2.539,0.504,5.021,0.504,7.446
		c0,6.544-0.648,20.873-16.496,20.873C831.663,185.162,825.395,180.423,824.315,171.454z M852.193,163.838
		c0-2.256-0.144-4.513-0.432-6.6c-0.793-6.77-5.043-10.944-11.526-10.944c-6.556,0-10.806,4.4-11.598,11.227
		c-0.217,2.087-0.36,4.23-0.36,6.374c0,8.913,1.729,18.108,11.958,18.108C852.121,182.003,852.193,168.689,852.193,163.838z"/>
	<path class="st2" d="M885.398,183.244c0,1.185-1.225,1.805-2.449,1.805c-1.152,0-2.306-0.563-2.306-1.692v-0.056
		c0.072-5.698,0.288-19.293,0.288-27.304c0-2.82,0-4.908-0.071-5.811c-0.145-2.144-0.865-2.82-3.746-2.82
		c-0.505,0-1.009,0-1.657,0.057h-0.216c-1.513,0-2.306-0.847-2.306-1.692c0-0.847,0.793-1.806,2.306-1.862
		c1.44-0.056,2.017-0.056,3.529-0.056c4.106,0,6.483,1.579,6.628,4.569c0.072,0.959,0.072,2.538,0.072,4.456
		c0,5.359-0.145,13.708-0.145,21.775c0,2.933,0,5.866,0.072,8.574V183.244z"/>
	<path class="st2" d="M915.433,183.019c0-0.564,0.288-1.129,1.152-1.58c11.67-6.148,17.433-15.795,17.433-17.262
		c0-0.113-0.071-0.113-0.144-0.113c-0.145,0-0.36,0.113-0.648,0.339c-2.665,2.031-6.628,3.046-10.661,3.046
		c-7.853,0-15.561-3.892-15.561-11.79c0-8.066,7.924-12.467,16.497-12.467c9.148,0,16.568,4.965,16.568,13.37
		c0,14.159-18.658,28.149-22.332,28.149C916.37,184.711,915.433,183.921,915.433,183.019z M923.645,146.237
		c-7.132,0-12.679,3.893-12.679,9.365c0,6.036,6.052,9.025,12.03,9.025c7.06,0,12.751-4.005,12.751-9.478
		C935.748,149.679,930.201,146.237,923.645,146.237z"/>
</g>
<g>
	<g>
		<path class="st3" d="M234.46,189.308c-2.485-2.523-1.979-2.308-4.254-4.998c-2.48-2.933-4.783-5.957-5.994-9.569
			c-0.097-0.288-0.122-0.556-0.094-0.8c-0.585-0.734-0.835-1.653-0.91-2.611c-0.135-1.703-0.084-2.803-0.889-4.378
			c-0.486-0.952-0.817-1.862-0.979-2.833c-1.27-1.626-2.538-3.255-3.805-4.882c-0.417-1.042-0.815-2.092-1.197-3.147
			c-1.787-1.632-3.007-3.826-3.306-6.726c-0.048-0.47,0.06-0.849,0.268-1.14c-2.218-0.684-4.367-1.58-6.532-2.673
			c-0.648-0.327-0.956-0.821-1.013-1.339c-0.037-0.005-0.073-0.01-0.11-0.016c-0.201-0.031-0.399-0.072-0.599-0.107
			c-0.077-0.396-0.146-0.793-0.204-1.19c0.312-0.297,0.478-0.727,0.333-1.253c-0.198-0.718-0.254-1.393-0.188-2.046
			c-2.09-4.715-0.917-11.909,4.458-13.368c0.03-0.008,0.059-0.013,0.088-0.02c-0.92-1.388-1.722-2.837-2.374-4.329
			c-0.933-2.134-1.599-4.485-1.362-6.81c0.015-0.148,0.044-0.291,0.067-0.437c-0.578-0.288-1.01-0.828-1.025-1.624
			c-0.076-3.926-0.604-7.575,2.635-10.573c0.104-0.096,0.214-0.183,0.32-0.275c-0.281-0.783-0.119-1.722,0.795-2.314
			c1.015-0.657,2.065-1.195,3.139-1.644c0.32-0.537,0.646-1.07,0.971-1.599c0.414-0.675,0.621-1.34,0.671-1.976
			c-1.524-1.393-2.477-3.255-2.995-5.28c-0.114-0.445-0.072-0.843,0.074-1.181c-0.027-0.188-0.063-0.375-0.095-0.562
			c-3.319-1.672-5.68-4.342-5.693-8.792c-0.166-0.152-0.33-0.307-0.49-0.467c-2.446-2.463-3.69-5.516-4.097-8.766
			c-0.9-0.548-1.723-1.19-2.403-2.013c0.913,2.256,1.382,4.615,0.902,7.072c-0.046,0.235-0.102,0.466-0.164,0.695
			c2.121,2.967,2.993,6.075,2.736,9.627c0.136,0.441,0.274,0.881,0.41,1.321c2.943,1.4,5.751,3.133,5.76,6.666
			c0.008,3.027-1.807,5.022-3.639,7.099c-0.037,0.524-0.093,1.048-0.18,1.572c-0.642,3.875-3.447,6.498-4.762,10.061
			c0.512,0.972,0.981,1.96,1.396,2.95c0.795,1.9,1.383,3.881,1.54,5.924c0.203,2.626-0.313,5.263-0.364,7.888
			c-0.018,0.913-0.581,1.488-1.284,1.733c0.391,1.129-0.228,2.606-1.867,2.606c-0.913,0-1.503-0.463-1.788-1.065
			c-0.126,0.021-0.256,0.036-0.397,0.036c-0.864,0-1.441-0.413-1.742-0.968c-0.522,0.056-1.071-0.116-1.535-0.629
			c-1.216-1.343-2.753-2.395-3.91-3.783c-1.265-1.517-1.737-3.256-1.783-5.138c-0.117-0.063-0.227-0.131-0.346-0.192
			c-3.672,0.43-6.674-1.842-9.619-4.261c-0.046-0.038-0.087-0.077-0.128-0.116c-1.441-0.637-2.874-1.29-4.283-1.993
			c-1.737-0.866-3.449-1.774-5.149-2.701c-4.744-0.682-9.296-2.612-10.816-7.02c-0.093-0.271-0.122-0.524-0.103-0.756
			c-1.111-1.638-1.883-3.468-2.205-5.478c-0.387-2.409-0.279-4.791-0.416-7.145c-0.988-0.392-1.876-0.968-2.562-1.861
			c-0.914-1.191-1.213-2.452-1.124-3.893c0.099-1.595-0.787-2.363-1.238-3.844c-0.098-0.321-0.11-0.617-0.059-0.884
			c-0.392-0.333-0.796-0.657-1.213-0.967c-1.401-0.068-2.785-0.315-3.919-1.146c-0.358-0.263-0.609-0.535-0.885-0.879
			c-0.195-0.244-0.58-0.509-0.406-0.488c-0.68-0.172-1.378,0.005-2.067-0.46c-0.363-0.245-1.145-1.049-1.38-1.679
			c-0.266,0.017-0.598-0.041-0.815-0.087c-1.862-0.39-2.342-2.41-4.025-3.032c-0.346-0.128-0.619-0.314-0.83-0.535
			c-0.318-0.016-0.634-0.047-0.945-0.108c-1.78-0.349-3.131-1.478-4.347-2.688c-2.283-2.272-4.81-4.699-6.087-7.619
			c-0.199-0.091-0.4-0.178-0.594-0.28c-1.307-0.684-2.419-1.656-3.192-2.835c-2.803-2.661-3.441-6.835-0.894-10.387
			c0.117-0.163,0.248-0.298,0.387-0.413c-0.035-0.296-0.07-0.592-0.107-0.887c-0.172-1.365-0.356-2.731-0.616-4.082
			c-1.65-1.916-2.875-4.125-4.029-6.373c-0.412-0.803-0.698-1.588-0.905-2.371c-0.789-1.441-0.942-3.242-0.677-5.019
			c-0.028-0.072-0.057-0.143-0.084-0.214l0.159-0.235c0.036-0.192,0.078-0.383,0.123-0.573c0.002-0.153,0.003-0.304,0.005-0.459
			c0.006-0.563,0.224-0.993,0.552-1.299c0.328-0.825,0.732-1.592,1.186-2.251c0.37-0.537,0.881-0.806,1.41-0.876
			c0.007-0.004,0.015-0.006,0.022-0.009c1.366-1.304,3.083-2.212,4.898-2.304c0.376-0.019,0.693,0.05,0.962,0.17
			c0.009-0.009,0.017-0.019,0.026-0.028c-0.421-0.31-0.703-0.793-0.679-1.461c0.166-4.615,2.645-8.59,5.425-12.279
			c-1.107-0.567-2.509-0.563-3.661,0.535c-0.95,0.905-1.624,1.908-2.206,2.96c0.606,0.972,0.284,2.458-0.956,2.883
			c-0.196,0.288-0.476,0.525-0.844,0.666c-0.024,0.045-0.047,0.09-0.071,0.135c-1.347,2.488-3.672,4.234-5.991,5.895
			c-0.716,0.513-1.247,1.184-1.474,1.925c-0.159-0.039-0.324-0.041-0.472,0.002c-0.176-1.423-0.244-2.857-0.215-4.291
			c-0.612-0.138-1.13-0.563-1.297-1.344c-0.531-2.499-0.75-5.071-0.673-7.621c-0.279-0.472-0.532-0.957-0.742-1.455
			c-0.837-0.179-1.709-0.142-2.469,0.151c0.036,2.455-0.282,4.809-1.822,7.159c-0.288,0.44-0.671,0.703-1.083,0.828
			c-0.018,0.218-0.025,0.437-0.039,0.655c3.33,1.937,3.048,6.794,3.223,10.227c0.065,1.269-0.967,1.887-2.013,1.864
			c0.052,0.188,0.096,0.377,0.151,0.564c0.008,0.027,0.018,0.053,0.026,0.08c-4.451-1.782-9.016-3.267-13.715-4.395
			c-1.637-0.393-2.938,0.204-3.728,1.184c0.094-0.014,0.185-0.033,0.287-0.037c4.844-0.161,10.041,2.467,13.9,4.989
			c0.311-0.222,0.715-0.359,1.212-0.359c0.892,0,1.481,0.439,1.771,1.021c0.462,0.194,0.776,0.546,0.953,0.955
			c3.96,1.203,5.907,4.747,7.385,8.229c1.957,1.583,3.586,3.531,3.238,6.136c-0.132,0.99-0.52,1.949-1.046,2.867
			c-0.132,2.259-0.707,4.509-1.03,6.736c-0.081,0.559-0.353,0.929-0.712,1.15c0.434,1.301,0.994,2.567,1.748,3.778
			c-1.538-0.506-3.137-0.884-4.823-1.099c-4.768-0.61-9.644-0.382-14.456-0.282c-2.391,2.131-6.231,1.524-9.415,1.477
			c-0.671-0.01-1.17-0.266-1.501-0.642c-2.549,0.426-5.166,0.205-7.509-1.097c-3.734-2.075-6.44-6.104-6.535-10.209
			c-0.337,0.079-0.661,0.208-0.962,0.379c0.339,5.658,3.517,13.218,9.63,14.394c0.314-0.227,0.723-0.366,1.233-0.358
			c3.118,0.05,5.996,0.701,8.635,1.849c0.184-0.791,0.822-1.482,1.925-1.506c5.139-0.112,10.916-2.554,15.905-0.476
			c1.282,0.534,2.416,1.316,3.435,2.243c0.326-0.438,0.854-0.745,1.599-0.738c2.48,0.021,5.165,0.275,7.304,1.567
			c0.306,0.185,0.581,0.389,0.841,0.602c0.455,0.009,0.919,0.194,1.322,0.628c1.289,1.387,2.322,2.999,3.14,4.722
			c0.043,0.049,0.176,0.225,0.227,0.281c0.043,0.073,0.085,0.143,0.101,0.164c0.018,0.024,0.032,0.042,0.045,0.058
			c0.006,0.017,0.012,0.033,0.02,0.055c0.067,0.176,0.151,0.346,0.249,0.509c-0.003,0.112-0.015,0.224-0.031,0.336
			c0.516,1.299,0.918,2.642,1.224,3.986c0.242,0.213,0.521,0.396,0.832,0.55c0.331-0.357,0.823-0.596,1.478-0.597
			c6.55-0.013,12.05,3.394,14.513,8.572c0.63,0.453,1.199,0.92,1.689,1.435c4.444,2.122,5.508,7.158,5.339,11.65
			c-0.057,1.521-1.611,2.109-2.794,1.774c0.022,0.113,0.039,0.227,0.063,0.34c-2.272-0.715-4.615-1.218-7.004-1.504
			c-6.555,2.5-15.21,3.913-20.857,0.596c-0.27,0.134-0.587,0.219-0.963,0.219c-1.173,0-1.824-0.757-1.96-1.603
			c-0.378,0.267-0.682,0.623-0.902,1.03c0.57,0.283,0.905,0.809,0.998,1.382c0.015,0.005,0.029,0.007,0.044,0.013
			c2.988,1.134,5.679,2.624,8.241,4.298c0.264,0.011,0.528,0.016,0.792,0.022c0.331-0.381,0.837-0.634,1.527-0.617
			c3.495,0.088,6.755-1.352,10.281-1.095c2.615,0.191,5.393,0.535,7.974,0.971c4.471,0.756,7.493,4.811,9.646,8.622
			c0.115,0.093,0.225,0.19,0.34,0.282c3.037-0.314,7.726-0.842,8.469,2.086c0.062,0.243,0.135,1.373-0.002,1.226
			c0.327,0.584,1.116,0.813,1.738,1.035c1.623,0.578,3.371,0.879,5.073,1.174c1.748,0.303,1.822,2.082,0.901,3.086
			c0.005,0.002,0.01,0.005,0.015,0.007c-0.008,0.001-0.017,0.003-0.025,0.004c-0.391,0.42-0.958,0.701-1.651,0.675
			c-0.045,0.256-0.163,0.522-0.376,0.79c-0.651,0.817-1.428,1.568-2.3,2.243c0.055,0.638-0.221,1.291-0.987,1.71
			c-4.407,2.41-9.147,2.825-14.149,2.837c-0.716,0.002-1.232-0.284-1.561-0.695c-0.087,0.002-0.172,0.008-0.26,0.009
			c-0.825,0.009-1.392-0.36-1.704-0.873c-0.758-0.075-1.264-0.488-1.526-1.019c-0.136,0.153-0.261,0.314-0.373,0.481
			c1.578,2.714,4.172,4.631,7.155,5.908c0.563,0.015,1.126-0.009,1.688-0.049c0.249-0.691,0.869-1.259,1.861-1.294
			c2.732-0.095,5.41-1.166,8.079-1.627c0.674-0.294,1.35-0.584,2.034-0.856c-0.311-1.117,0.319-2.499,1.904-2.49
			c0.37,0.002,0.738,0.012,1.106,0.026c0.09-0.668,0.538-1.278,1.443-1.5c2.513-0.616,4.26-3.377,7.167-2.131
			c0.856,0.367,1.484,0.993,2.036,1.702c1.783,0.377,3.127,1.323,4.323,2.763c0.811,0.976,1.607,1.99,2.309,3.054
			c2.569,1.32,4.628,4.037,6.012,6.555c5.112,1.385,8.889,6.261,11.728,10.232c0.984,1.376,1.503,2.847,1.819,4.38
			c0.631,0.477,1.255,0.961,1.82,1.517c1.415,1.394,2.227,3.155,2.727,5.007c0.2,0.743,0.342,1.49,0.436,2.237
			c0.064,0.066,0.127,0.135,0.185,0.212c2.684,3.523,5.571,7.036,6.836,11.279c1.22,4.092,0.484,8.421,1.442,12.561
			c0.737,3.184,2.363,6.269,4.518,8.882c0.62,0.675,1.243,1.348,1.868,2.018c0.058,0.056,0.115,0.114,0.174,0.169
			c0.96,0.905,2.002,1.715,3.086,2.475c0.264-0.184,0.513-0.4,0.729-0.671c2.48-3.107,1.335-7.644,5.358-7.432
			C233.925,191.167,235.449,190.312,234.46,189.308z"/>
		<g>
			<path class="st3" d="M131.555,1.686c0,3.182-3.529,8.687-3.529,8.687s-3.529-5.505-3.529-8.687s2.493-0.882,3.529-0.882
				C129.044,0.804,131.555-1.497,131.555,1.686z"/>
			<path class="st3" d="M137.378,11.067c-3.027,0.983-9.352-0.672-9.352-0.672s4.145-5.057,7.171-6.041s1.609,2.098,1.93,3.084
				C137.442,8.406,140.405,10.084,137.378,11.067z"/>
			<path class="st3" d="M130.277,19.475c-1.871-2.575-2.251-9.102-2.251-9.102s6.091,2.379,7.961,4.954s-1.498,2.179-2.337,2.788
				C132.827,18.713,132.148,22.05,130.277,19.475z"/>
			<path class="st3" d="M120.065,15.326c1.871-2.575,7.961-4.954,7.961-4.954s-0.38,6.528-2.251,9.102s-2.535-0.751-3.374-1.361
				C121.578,17.516,118.194,17.9,120.065,15.326z"/>
			<path class="st3" d="M120.855,4.354c3.027,0.983,7.171,6.041,7.171,6.041s-6.326,1.655-9.352,0.672s-0.069-2.643,0.251-3.629
				C119.24,6.469,117.828,3.37,120.855,4.354z"/>
			<circle class="st4" cx="128.026" cy="10.372" r="1.804"/>
		</g>
		<g>
			<path class="st3" d="M113.066,64.85c0,3.182-3.529,8.687-3.529,8.687s-3.529-5.505-3.529-8.687c0-3.182,2.493-0.882,3.529-0.882
				C110.554,63.968,113.066,61.667,113.066,64.85z"/>
			<path class="st3" d="M118.889,74.231c-3.027,0.983-9.352-0.672-9.352-0.672s4.145-5.057,7.171-6.041
				c3.027-0.983,1.609,2.098,1.93,3.084C118.952,71.57,121.916,73.248,118.889,74.231z"/>
			<path class="st3" d="M111.787,82.639c-1.871-2.575-2.251-9.102-2.251-9.102s6.091,2.379,7.961,4.954
				c1.871,2.575-1.498,2.179-2.337,2.788C114.338,81.877,113.658,85.214,111.787,82.639z"/>
			<path class="st3" d="M101.575,78.49c1.871-2.575,7.961-4.954,7.961-4.954s-0.38,6.528-2.251,9.102
				c-1.871,2.575-2.535-0.751-3.374-1.361C103.088,80.679,99.705,81.064,101.575,78.49z"/>
			<path class="st3" d="M102.365,67.518c3.027,0.983,7.171,6.041,7.171,6.041s-6.326,1.655-9.352,0.672
				c-3.027-0.983-0.069-2.643,0.251-3.629C100.75,69.633,99.338,66.534,102.365,67.518z"/>
			<circle class="st4" cx="109.536" cy="73.536" r="1.804"/>
		</g>
		<g>
			<path class="st3" d="M161.773,70.309c0,3.182-3.529,8.687-3.529,8.687s-3.529-5.505-3.529-8.687s2.493-0.882,3.529-0.882
				C159.262,69.427,161.773,67.127,161.773,70.309z"/>
			<path class="st3" d="M167.597,79.69c-3.027,0.983-9.352-0.672-9.352-0.672s4.145-5.057,7.171-6.041
				c3.027-0.983,1.609,2.098,1.93,3.084C167.66,77.03,170.623,78.707,167.597,79.69z"/>
			<path class="st3" d="M160.495,88.099c-1.871-2.575-2.251-9.102-2.251-9.102s6.091,2.379,7.961,4.954
				c1.871,2.575-1.498,2.179-2.337,2.788C163.045,87.336,162.366,90.673,160.495,88.099z"/>
			<path class="st3" d="M150.283,83.949c1.871-2.575,7.961-4.954,7.961-4.954s-0.38,6.528-2.251,9.102
				c-1.871,2.575-2.535-0.751-3.374-1.361C151.796,86.139,148.412,86.524,150.283,83.949z"/>
			<path class="st3" d="M151.073,72.977c3.027,0.983,7.171,6.041,7.171,6.041s-6.326,1.655-9.352,0.672
				c-3.027-0.983-0.069-2.643,0.251-3.629C149.458,75.093,148.046,71.994,151.073,72.977z"/>
			<circle class="st4" cx="158.244" cy="78.995" r="1.804"/>
		</g>
		<g>
			<path class="st3" d="M74.465,44.008c0,3.182-3.529,8.687-3.529,8.687s-3.529-5.505-3.529-8.687s2.493-0.882,3.529-0.882
				C71.954,43.125,74.465,40.825,74.465,44.008z"/>
			<path class="st3" d="M80.289,53.389c-3.027,0.983-9.352-0.672-9.352-0.672s4.145-5.057,7.171-6.041
				c3.027-0.983,1.609,2.098,1.93,3.084C80.352,50.728,83.315,52.405,80.289,53.389z"/>
			<path class="st3" d="M73.187,61.797c-1.871-2.575-2.251-9.102-2.251-9.102s6.091,2.379,7.961,4.954
				c1.871,2.575-1.498,2.179-2.337,2.788C75.737,61.035,75.058,64.372,73.187,61.797z"/>
			<path class="st3" d="M62.975,57.647c1.871-2.575,7.961-4.954,7.961-4.954s-0.38,6.528-2.251,9.102
				c-1.871,2.575-2.535-0.751-3.374-1.361C64.488,59.837,61.104,60.222,62.975,57.647z"/>
			<path class="st3" d="M63.765,46.676c3.027,0.983,7.171,6.041,7.171,6.041s-6.326,1.655-9.352,0.672
				c-3.027-0.983-0.069-2.643,0.251-3.629C62.15,48.791,60.738,45.692,63.765,46.676z"/>
			<circle class="st4" cx="70.936" cy="52.694" r="1.804"/>
		</g>
		<g>
			<path class="st3" d="M146.157,122.238c0,3.182-3.529,8.687-3.529,8.687s-3.529-5.505-3.529-8.687s2.493-0.882,3.529-0.882
				C143.646,121.355,146.157,119.055,146.157,122.238z"/>
			<path class="st3" d="M151.98,131.619c-3.027,0.983-9.352-0.672-9.352-0.672s4.145-5.057,7.171-6.041s1.609,2.098,1.93,3.084
				C152.043,128.958,155.007,130.636,151.98,131.619z"/>
			<path class="st3" d="M144.879,140.027c-1.871-2.575-2.251-9.102-2.251-9.102s6.091,2.379,7.961,4.954
				c1.871,2.575-1.498,2.179-2.337,2.788C147.429,139.265,146.749,142.602,144.879,140.027z"/>
			<path class="st3" d="M134.667,135.878c1.871-2.575,7.961-4.954,7.961-4.954s-0.38,6.528-2.251,9.102s-2.535-0.751-3.374-1.361
				C136.18,138.067,132.796,138.452,134.667,135.878z"/>
			<path class="st3" d="M135.457,124.906c3.027,0.983,7.171,6.041,7.171,6.041s-6.326,1.655-9.352,0.672s-0.069-2.643,0.251-3.629
				C133.841,127.021,132.43,123.922,135.457,124.906z"/>
			<circle class="st4" cx="142.628" cy="130.924" r="1.804"/>
		</g>
		<g>
			<path class="st3" d="M202.513,54.631c0,3.182-3.529,8.687-3.529,8.687s-3.529-5.505-3.529-8.687c0-3.182,2.493-0.882,3.529-0.882
				C200.002,53.749,202.513,51.449,202.513,54.631z"/>
			<path class="st3" d="M208.336,64.012c-3.027,0.983-9.352-0.672-9.352-0.672s4.145-5.057,7.171-6.041
				c3.027-0.983,1.609,2.098,1.93,3.084C208.399,61.351,211.363,63.029,208.336,64.012z"/>
			<path class="st3" d="M201.235,72.421c-1.871-2.575-2.251-9.102-2.251-9.102s6.091,2.379,7.961,4.954s-1.498,2.179-2.337,2.788
				C203.785,71.658,203.105,74.995,201.235,72.421z"/>
			<path class="st3" d="M191.022,68.271c1.871-2.575,7.961-4.954,7.961-4.954s-0.38,6.528-2.251,9.102
				c-1.871,2.575-2.535-0.751-3.374-1.361C192.535,70.461,189.152,70.846,191.022,68.271z"/>
			<path class="st3" d="M191.812,57.299c3.027,0.983,7.171,6.041,7.171,6.041s-6.326,1.655-9.352,0.672
				c-3.027-0.983-0.069-2.643,0.251-3.629C190.197,59.415,188.786,56.316,191.812,57.299z"/>
			<circle class="st4" cx="198.984" cy="63.317" r="1.804"/>
		</g>
	</g>
	<g>
		<g>
			<path class="st3" d="M22.576,95.246c0,5.048-5.598,13.779-5.598,13.779s-5.598-8.731-5.598-13.779
				c0-5.048,3.954-1.399,5.598-1.399C18.593,93.847,22.576,90.198,22.576,95.246z"/>
			<path class="st3" d="M31.813,110.126c-4.801,1.56-14.835-1.066-14.835-1.066s6.574-8.022,11.375-9.582
				c4.801-1.56,2.553,3.328,3.061,4.891C31.913,105.906,36.613,108.567,31.813,110.126z"/>
			<path class="st3" d="M20.548,123.463c-2.967-4.084-3.571-14.438-3.571-14.438s9.661,3.773,12.628,7.857
				c2.967,4.084-2.376,3.456-3.706,4.422C24.593,122.254,23.515,127.547,20.548,123.463z"/>
			<path class="st3" d="M4.35,116.881c2.967-4.084,12.628-7.857,12.628-7.857s-0.603,10.354-3.571,14.438
				c-2.967,4.084-4.022-1.192-5.351-2.158C6.75,120.355,1.383,120.965,4.35,116.881z"/>
			<path class="st3" d="M5.603,99.478c4.801,1.56,11.375,9.582,11.375,9.582s-10.034,2.626-14.835,1.066s-0.109-4.193,0.399-5.756
				C3.041,102.834,0.802,97.918,5.603,99.478z"/>
			<circle class="st4" cx="16.978" cy="109.024" r="2.861"/>
		</g>
		<g>
			<path class="st3" d="M47.972,121.124c0,2.766-3.067,7.549-3.067,7.549s-3.067-4.784-3.067-7.549s2.166-0.767,3.067-0.767
				C45.79,120.357,47.972,118.358,47.972,121.124z"/>
			<path class="st3" d="M53.033,129.276c-2.63,0.855-8.127-0.584-8.127-0.584s3.602-4.395,6.232-5.25
				c2.63-0.855,1.399,1.823,1.677,2.68C53.087,126.964,55.663,128.422,53.033,129.276z"/>
			<path class="st3" d="M46.861,136.583c-1.626-2.237-1.956-7.91-1.956-7.91s5.293,2.067,6.918,4.305
				c1.626,2.237-1.302,1.894-2.03,2.423C49.077,135.921,48.487,138.821,46.861,136.583z"/>
			<path class="st3" d="M37.987,132.977c1.626-2.237,6.918-4.305,6.918-4.305s-0.331,5.673-1.956,7.91
				c-1.626,2.237-2.203-0.653-2.932-1.182C39.301,134.88,36.361,135.215,37.987,132.977z"/>
			<path class="st3" d="M38.673,123.443c2.63,0.855,6.232,5.25,6.232,5.25s-5.497,1.439-8.127,0.584
				c-2.63-0.855-0.06-2.297,0.219-3.154C37.27,125.281,36.043,122.588,38.673,123.443z"/>
			<circle class="st4" cx="44.905" cy="128.673" r="1.568"/>
		</g>
		<g>
			<path class="st3" d="M70.307,112.243c0,2.766-3.067,7.549-3.067,7.549s-3.067-4.784-3.067-7.549c0-2.766,2.166-0.767,3.067-0.767
				C68.124,111.476,70.307,109.478,70.307,112.243z"/>
			<path class="st3" d="M75.367,120.395c-2.63,0.855-8.127-0.584-8.127-0.584s3.602-4.395,6.232-5.25
				c2.63-0.855,1.399,1.823,1.677,2.68C75.422,118.083,77.997,119.541,75.367,120.395z"/>
			<path class="st3" d="M69.196,127.702c-1.626-2.237-1.956-7.91-1.956-7.91s5.293,2.067,6.918,4.305
				c1.626,2.237-1.302,1.894-2.03,2.423C71.412,127.04,70.821,129.94,69.196,127.702z"/>
			<path class="st3" d="M60.321,124.096c1.626-2.237,6.918-4.305,6.918-4.305s-0.331,5.673-1.956,7.91
				c-1.626,2.237-2.203-0.653-2.932-1.182C61.636,125.999,58.696,126.334,60.321,124.096z"/>
			<path class="st3" d="M61.008,114.562c2.63,0.855,6.232,5.25,6.232,5.25s-5.497,1.439-8.127,0.584s-0.06-2.297,0.219-3.154
				C59.604,116.4,58.377,113.707,61.008,114.562z"/>
			<circle class="st4" cx="67.24" cy="119.792" r="1.568"/>
		</g>
	</g>
</g>
<g>
</g>
<g>
</g>
<g>
</g>
<g>
</g>
<g>
</g>
<g>
</g>
</svg>
